<?xml version="1.0" encoding="UTF-8" standalone="no"?>
<!-- Created with Inkscape (http://www.inkscape.org/) -->
<svg
   xmlns:dc="http://purl.org/dc/elements/1.1/"
   xmlns:cc="http://web.resource.org/cc/"
   xmlns:rdf="http://www.w3.org/1999/02/22-rdf-syntax-ns#"
   xmlns:svg="http://www.w3.org/2000/svg"
   xmlns="http://www.w3.org/2000/svg"
   xmlns:xlink="http://www.w3.org/1999/xlink"
   xmlns:sodipodi="http://sodipodi.sourceforge.net/DTD/sodipodi-0.dtd"
   xmlns:inkscape="http://www.inkscape.org/namespaces/inkscape"
   width="744.09448819"
   height="1052.3622047"
   id="svg2"
   sodipodi:version="0.32"
   inkscape:version="0.45"
   sodipodi:docbase="/Users/mike/Documents/Projects/AutoRate"
   sodipodi:docname="icon.svg"
   inkscape:output_extension="org.inkscape.output.svg.inkscape"
   sodipodi:modified="TRUE">
  <defs
     id="defs4">
    <linearGradient
       id="linearGradient3204">
      <stop
         style="stop-color:#1a226e;stop-opacity:1;"
         offset="0"
         id="stop3206" />
      <stop
         style="stop-color:#2f3fb0;stop-opacity:1;"
         offset="1"
         id="stop3208" />
    </linearGradient>
    <linearGradient
       id="linearGradient3157">
      <stop
         id="stop3159"
         offset="0"
         style="stop-color:#ffffff;stop-opacity:0.36082473;" />
      <stop
         id="stop3161"
         offset="1"
         style="stop-color:#ffffff;stop-opacity:0;" />
    </linearGradient>
    <linearGradient
       id="linearGradient3137">
      <stop
         style="stop-color:#ffffff;stop-opacity:0.6082474;"
         offset="0"
         id="stop3139" />
      <stop
         style="stop-color:#ffffff;stop-opacity:0;"
         offset="1"
         id="stop3141" />
    </linearGradient>
    <linearGradient
       inkscape:collect="always"
       xlink:href="#linearGradient3137"
       id="linearGradient3143"
       x1="393.39645"
       y1="183.79759"
       x2="393.39645"
       y2="318.08331"
       gradientUnits="userSpaceOnUse"
       gradientTransform="translate(-16.718005,102.59156)" />
    <linearGradient
       inkscape:collect="always"
       xlink:href="#linearGradient3157"
       id="linearGradient3155"
       gradientUnits="userSpaceOnUse"
       gradientTransform="matrix(-1.0409686,0.270967,-0.5349684,-0.6886276,1056.1941,820.4448)"
       x1="393.39645"
       y1="183.79759"
       x2="393.39645"
       y2="318.08331" />
    <linearGradient
       inkscape:collect="always"
       xlink:href="#linearGradient3157"
       id="linearGradient3165"
       gradientUnits="userSpaceOnUse"
       gradientTransform="matrix(1.1516186,0.270967,0.591833,-0.6886276,-347.38354,821.25668)"
       x1="393.39645"
       y1="183.79759"
       x2="393.39645"
       y2="318.08331" />
    <linearGradient
       inkscape:collect="always"
       xlink:href="#linearGradient3137"
       id="linearGradient3169"
       gradientUnits="userSpaceOnUse"
       gradientTransform="matrix(1.6674933,0,0,0.318728,-104.58104,384.32506)"
       x1="393.39645"
       y1="183.79759"
       x2="393.39645"
       y2="318.08331" />
    <linearGradient
       inkscape:collect="always"
       xlink:href="#linearGradient3137"
       id="linearGradient3173"
       gradientUnits="userSpaceOnUse"
       gradientTransform="matrix(1.6674933,0,0,0.318728,-458.45848,386.19497)"
       x1="393.39645"
       y1="183.79759"
       x2="393.39645"
       y2="318.08331" />
    <linearGradient
       inkscape:collect="always"
       xlink:href="#linearGradient3204"
       id="linearGradient3210"
       x1="127.71129"
       y1="434.04206"
       x2="487.84687"
       y2="434.04206"
       gradientUnits="userSpaceOnUse"
       gradientTransform="matrix(0.9723997,0.2333212,-0.2333212,0.9723997,136.77981,-142.22759)" />
  </defs>
  <sodipodi:namedview
     id="base"
     pagecolor="#ffffff"
     bordercolor="#666666"
     borderopacity="1.0"
     gridtolerance="10000"
     guidetolerance="10"
     objecttolerance="10"
     inkscape:pageopacity="0.0"
     inkscape:pageshadow="2"
     inkscape:zoom="0.3046927"
     inkscape:cx="432.14286"
     inkscape:cy="568.37763"
     inkscape:document-units="px"
     inkscape:current-layer="layer1"
     inkscape:window-width="697"
     inkscape:window-height="581"
     inkscape:window-x="197"
     inkscape:window-y="85" />
  <metadata
     id="metadata7">
    <rdf:RDF>
      <cc:Work
         rdf:about="">
        <dc:format>image/svg+xml</dc:format>
        <dc:type
           rdf:resource="http://purl.org/dc/dcmitype/StillImage" />
      </cc:Work>
    </rdf:RDF>
  </metadata>
  <g
     inkscape:label="Layer 1"
     inkscape:groupmode="layer"
     id="layer1">
    <g
       id="g3508"
       transform="matrix(1,0,0,0.8897001,-741.73093,520.1095)"
       inkscape:export-filename="/Users/mike/Desktop/asf.png"
       inkscape:export-xdpi="16.733803"
       inkscape:export-ydpi="16.733803">
      <path
         style="opacity:0.05882401;fill:#000000;fill-opacity:1;stroke:none;stroke-width:2.375;stroke-miterlimit:4;stroke-dasharray:18.99999981, 18.99999981;stroke-dashoffset:0;stroke-opacity:1"
         d="M 1129.4688,-211.875 C 1115.8924,-186.19029 1109.6456,-157.54068 1100.4177,-130.15704 C 1088.3979,-93.380321 1076.7231,-55.069911 1052.5,-24.1875 C 1036.7554,-3.4534689 1011.2919,6.6462642 986.40625,10.78125 C 933.01573,20.04272 878.65595,12.528099 824.96875,15.625 C 820.58712,16.009041 816.36837,16.490299 812.0625,17.4375 C 832.36451,38.4268 858.0403,53.398535 881.375,70.78125 C 912.44818,93.457569 945.0477,116.261 966.8125,148.65625 C 981.94621,170.411 983.59937,198.24353 979.55437,223.6786 C 971.68188,277.14201 947.6031,326.53899 934.21875,378.53125 C 933.39776,382.3708 932.38966,386.63541 932.3125,390.25 C 958.55795,377.38964 980.57089,357.70789 1004.3125,340.90625 C 1035.4392,318.37485 1067.1986,294.42329 1104.6875,283.71875 C 1129.8042,276.06695 1156.5973,282.87226 1179.3438,294.375 C 1228.1264,318.35513 1267.6699,356.67551 1313.2637,385.6395 C 1316.5924,387.57426 1320.5805,390.05662 1323.9062,391.09375 C 1319.9202,362.90345 1308.491,336.82867 1300.0087,309.80602 C 1287.9297,272.35308 1274.4292,233.98889 1275.875,194.09375 C 1276.4022,168.40345 1290.602,145.47109 1308.0907,127.58343 C 1346.1687,87.989664 1395.4857,62.016202 1437.5625,27.15625 C 1440.3195,24.596422 1443.754,21.792856 1445.7812,18.96875 C 1417.505,14.043548 1388.6318,16.886289 1360.0632,16.605601 C 1321.0251,16.47949 1280.6049,17.422762 1243.4375,3.75 C 1219.5115,-4.6162976 1202.2097,-24.793639 1190.6562,-46.625 C 1164.4642,-95.278311 1154.9461,-150.49019 1134.75,-201.5625 C 1133.1859,-205.00368 1131.4694,-209.18352 1129.4688,-211.875 z "
         id="path3510" />
      <path
         style="opacity:0.05882401;fill:#000000;fill-opacity:1;stroke:none;stroke-width:2.375;stroke-miterlimit:4;stroke-dasharray:18.99999981, 18.99999981;stroke-dashoffset:0;stroke-opacity:1"
         d="M 1129.3438,-216 C 1117.058,-196.09166 1111.6433,-172.47049 1104.2693,-150.40819 C 1091.4756,-110.42233 1080.2536,-68.877464 1056.6375,-33.623767 C 1044.7521,-15.340532 1026.2714,-1.7157345 1005.1875,3.90625 C 963.00738,15.905326 918.39819,13.008783 874.97137,12.688663 C 852.69853,12.797575 829.84922,10.693204 808.03125,16.09375 C 822.42781,33.493369 842.42029,45.418098 860.45612,58.836918 C 895.53581,84.161764 932.8956,108.1462 959.8125,142.6875 C 973.21088,159.56311 980.13321,181.09589 979.03125,202.625 C 977.19286,247.4437 960.19341,289.71709 946.15685,331.82695 C 939.73063,352.1021 931.08488,372.28806 929.6875,393.75 C 951.04068,385.21122 968.75587,369.66098 987.28429,356.53531 C 1022.4137,330.78563 1057.097,302.46803 1098.6875,287.90625 C 1119.0553,280.60553 1141.7279,281.42683 1161.75,289.40625 C 1204.4092,305.81102 1239.7879,335.80712 1276.2034,362.61421 C 1292.3175,374.17248 1307.8471,387.38862 1326.4375,394.71875 C 1324.8957,371.70323 1315.6362,350.24935 1308.8022,328.38928 C 1295.4786,287.9262 1279.7047,247.11641 1278.0774,204.09388 C 1276.9436,182.70492 1283.5836,161.22915 1296.8954,144.40621 C 1323.0119,110.65127 1359.3777,87.170011 1393.7347,62.687629 C 1412.7918,48.733851 1433.652,36.367232 1449.375,18.5 C 1450.3362,16.609489 1445.2254,16.862341 1443.625,16.125 C 1410.7117,11.545045 1377.1873,14.896065 1344.0312,14.28125 C 1308.5595,13.786932 1271.5997,13.497383 1238.5312,-0.90625 C 1210.7206,-13.006592 1194.8553,-40.958464 1183.129,-67.384269 C 1163.6751,-111.33479 1154.387,-158.90635 1136.5157,-203.42058 C 1134.4193,-207.54459 1132.3201,-213.41951 1129.3438,-216 z "
         id="path3515" />
      <path
         style="opacity:0.05882401;fill:#000000;fill-opacity:1;stroke:none;stroke-width:2.375;stroke-miterlimit:4;stroke-dasharray:18.99999981, 18.99999981;stroke-dashoffset:0;stroke-opacity:1"
         d="M 1129.5,-219.90625 C 1118.2449,-205.21821 1113.8183,-186.49634 1107.7017,-169.29552 C 1093.3589,-125.32413 1082.2801,-79.328136 1057.8125,-39.59375 C 1046.6034,-21.074467 1029.4321,-5.8675016 1008.4688,0.40625 C 967.71554,13.243062 924.27056,10.751604 882.03264,10.475873 C 857.34109,10.579004 831.98486,8.0531614 807.8125,13.6875 C 804.57473,13.996979 804.068,15.807502 806.4375,17.9375 C 822.52567,36.767083 844.28014,49.585022 864.00966,64.209663 C 897.87022,88.670899 933.85706,112.19598 959.3125,145.96875 C 972.55093,163.12748 978.24499,185.14676 976.53125,206.65625 C 973.28613,253.94041 954.52683,298.16406 939.9509,342.71882 C 934.6431,360.39074 927.07887,378.03306 927.5,396.6875 C 944.29524,392.01756 958.15828,380.12323 972.42531,370.44227 C 1011.0878,342.63793 1048.0592,310.59661 1092.7182,292.52562 C 1112.6407,284.32934 1135.3595,282.48438 1155.8301,289.8589 C 1194.4254,303.01401 1226.8295,328.80928 1259.2395,352.77444 C 1280.2846,367.95103 1300.0818,385.5734 1323.8125,396.3125 C 1325.8659,396.96013 1329.7692,399.16131 1328.7812,395.0625 C 1327.5325,372.32828 1318.3939,351.07403 1311.6626,329.53357 C 1298.3249,288.94505 1282.4263,248.15467 1280.4375,205.0625 C 1279.1681,183.87536 1285.528,162.47371 1298.7736,145.81478 C 1324.5581,112.52232 1360.3754,89.340767 1394.251,65.186698 C 1413.6609,51.012202 1434.8107,38.4326 1450.9062,20.34375 C 1452.3509,18.596993 1454.919,15.904562 1451.0938,15.59375 C 1429.442,9.8025148 1406.6093,11.830676 1384.4064,11.558412 C 1340.6412,11.704158 1295.6614,14.48424 1253.2812,2.21875 C 1232.8145,-3.4451153 1214.9495,-16.776284 1203.489,-34.631732 C 1179.6187,-70.850102 1168.668,-113.45205 1155.7657,-154.38383 C 1148.6873,-175.71638 1143.5701,-198.35473 1131.5938,-217.5 C 1130.9616,-218.26344 1130.2748,-219.46666 1129.5,-219.90625 z "
         id="path3520" />
      <path
         style="opacity:0.05882401;fill:#000000;fill-opacity:1;stroke:none;stroke-width:2.375;stroke-miterlimit:4;stroke-dasharray:18.99999981, 18.99999981;stroke-dashoffset:0;stroke-opacity:1"
         d="M 1129.4375,-222.90625 C 1119.868,-213.69972 1116.3818,-200.05923 1111.5148,-188.08527 C 1094.3191,-139.43791 1083.7326,-87.421623 1056.9375,-42.65625 C 1046.1024,-24.190758 1029.5669,-8.6003938 1008.8064,-2.2001623 C 970.33775,10.350228 929.06796,8.468331 889.06267,8.2626092 C 862.30201,8.3763375 835.08721,5.5488138 808.71875,11 C 806.74474,12.041536 799.7441,12.452226 802.4375,16 C 811.68608,30.382838 826.97624,39.79387 840.34375,50.28125 C 878.33994,78.212845 919.55342,103.06427 950.8125,138.9375 C 964.96917,154.97224 974.69668,175.53531 974.32916,197.21861 C 974.29059,237.38074 960.09764,275.64278 947.5625,313.28125 C 939.3675,338.98369 928.14896,364.29441 925.0625,391.25 C 925.31838,393.59782 924.13119,397.98385 926.28125,399.1875 C 940.53152,396.67827 952.12978,386.98314 964.03372,379.33752 C 1005.6344,350.31797 1044.1862,315.48265 1091.3638,295.59195 C 1111.0605,287.15063 1133.6818,284.53262 1154.1562,291.8125 C 1191.2073,304.06143 1222.4555,328.5424 1253.4839,351.38594 C 1275.781,367.41522 1296.679,386.13587 1321.7188,397.96875 C 1324.305,398.62292 1328.4062,401.30856 1330.5625,399.5625 C 1332.4937,384.3372 1326.4054,369.41151 1322.5129,354.92094 C 1307.9117,307.60041 1287.528,261.24357 1283.125,211.5 C 1281.0282,190.20507 1285.277,167.87596 1298.2888,150.52216 C 1321.5683,118.40801 1355.198,95.953222 1386.9864,73.123965 C 1408.9456,57.127524 1432.8098,43.087368 1451.5938,23.1875 C 1453.0376,21.009479 1456.6537,17.938366 1455.9688,15.34375 C 1443.3514,9.0172058 1428.5846,10.099394 1414.8128,9.194367 C 1364.0149,8.1163159 1312.2839,13.733387 1262.3125,2.28125 C 1241.4054,-2.3611742 1221.4608,-13.272996 1208.9625,-31.05 C 1186.063,-62.608945 1175.0808,-100.66251 1163.4272,-137.36096 C 1154.6463,-163.78593 1148.7215,-191.71465 1135.1875,-216.34375 C 1133.5832,-218.64575 1131.9372,-221.7683 1129.4375,-222.90625 z "
         id="path3525" />
      <path
         style="opacity:0.05882401;fill:#000000;fill-opacity:1;stroke:none;stroke-width:2.375;stroke-miterlimit:4;stroke-dasharray:18.99999981, 18.99999981;stroke-dashoffset:0;stroke-opacity:1"
         d="M 1129.375,-225.40625 C 1121.6918,-220.92491 1118.8161,-211.30693 1114.9688,-203.71875 C 1094.1987,-151.51594 1084.633,-94.685583 1056.0625,-45.6875 C 1045.5065,-27.334418 1029.5658,-11.271735 1009,-4.75 C 972.01289,7.6279012 932.18743,6.1495854 893.62552,5.983299 C 865.46439,6.0840831 836.76212,3.2111231 809.09375,8.46875 C 806.03992,9.7292145 799.92909,10.130593 799.28125,14.03125 C 802.75936,24.414321 812.72832,31.002567 820.5625,38.09375 C 862.7211,71.827902 911.28453,98.150389 947.59375,138.78125 C 961.7758,154.52143 972.14399,174.61264 971.96875,196.25 C 972.19199,236.00922 958.16279,273.86945 945.84426,311.13053 C 937.41873,337.2184 926.21996,362.89857 922.75,390.28125 C 922.98567,393.61683 921.54537,399.51634 924.96875,401.40625 C 935.99274,401.25522 945.29587,393.87638 954.53125,388.59375 C 1000.3987,358.3883 1041.1791,319.33652 1092.27,297.7482 C 1111.4379,289.5601 1133.5016,286.91762 1153.4688,294.0625 C 1190.5461,306.36109 1221.825,330.99615 1252.8528,353.85242 C 1275.1047,369.88811 1295.9113,388.42102 1320.8125,400.15625 C 1324.0771,401.02461 1329.4232,404.26808 1332.2812,401.5625 C 1335.5858,390.48714 1331.1272,378.58697 1328.708,367.66007 C 1314.2205,316.00587 1290.7314,266.35019 1285.5471,212.50304 C 1283.3472,191.37417 1287.2274,169.09739 1300.2263,151.86591 C 1322.9445,120.52169 1355.6664,98.515512 1386.6929,76.210161 C 1409.3334,59.620744 1434.0172,45.268473 1453.4062,24.6875 C 1455.4142,21.79481 1459.7102,18.013915 1458.3125,14.28125 C 1449.0702,7.7998042 1436.8595,8.3568259 1426.0634,7.2385539 C 1371.7724,4.8378808 1316.4629,12.196022 1263,0.03125 C 1242.569,-4.4813961 1223.0261,-15.078092 1210.8375,-32.4875 C 1188.094,-63.791937 1177.2952,-101.64289 1165.6459,-138.04846 C 1157.0452,-164.33921 1150.9471,-191.90538 1137.8438,-216.46875 C 1135.6397,-219.57888 1133.4246,-224.54159 1129.375,-225.40625 z "
         id="path3530" />
      <path
         style="opacity:0.05882401;fill:#000000;fill-opacity:1;stroke:none;stroke-width:2.375;stroke-miterlimit:4;stroke-dasharray:18.99999981, 18.99999981;stroke-dashoffset:0;stroke-opacity:1"
         d="M 1128.9375,-227.71875 C 1121.0258,-224.28829 1117.9529,-214.85602 1114.1875,-207.71875 C 1093.2647,-157.23063 1083.9475,-102.01905 1057.867,-53.558468 C 1047.3719,-33.753807 1031.9474,-14.9806 1010,-7.625 C 974.46596,4.9151389 935.89853,3.7668044 898.65634,3.7055498 C 869.07068,3.9086971 839.15671,0.75110576 809.875,5.90625 C 805.3896,7.2383057 798.03821,8.1659211 796.875,13.5625 C 798.80488,23.442135 807.74507,29.521687 814.6064,36.178057 C 857.59427,71.80787 908.25195,98.320182 945.8125,140.28125 C 959.64073,155.65898 969.78024,175.17495 969.625,196.28125 C 969.83502,235.07169 956.28723,272.14148 944.24257,308.45727 C 935.63568,335.38831 923.96253,361.82138 920.4375,390.03125 C 919.52746,395.55835 920.25765,406.43382 928.71875,403.65625 C 947.00591,398.83195 962.06493,386.04922 977.25947,375.6274 C 1015.0026,348.50372 1050.9426,317.38495 1094.25,299.5 C 1112.9783,291.61711 1134.4144,289.50055 1153.7363,296.6089 C 1190.5097,309.15001 1221.6518,333.7711 1252.5938,356.59375 C 1274.5427,372.45079 1295.2213,390.79125 1319.9375,402.3125 C 1324.1687,403.7142 1331.397,407.43764 1334.5,402.4375 C 1338.1515,390.26126 1333.2559,377.52946 1330.625,365.625 C 1316.1058,314.80865 1293.0812,265.51763 1287.8909,212.34679 C 1285.7286,191.74452 1289.4778,169.97718 1302.1638,153.17841 C 1324.9729,121.8128 1357.7873,99.905145 1388.8553,77.542063 C 1411.4157,61.121448 1435.9523,46.679504 1455.1875,26.21875 C 1457.8221,22.747706 1463.9134,16.467374 1459.4688,12.09375 C 1448.0267,4.8430081 1433.524,5.7434394 1420.4715,4.6208096 C 1368.9472,3.0872027 1316.4291,9.1892218 1265.5938,-1.78125 C 1244.9916,-6.0606347 1224.9866,-16.242463 1212.7438,-33.89375 C 1190.6979,-64.112582 1180.0835,-100.70705 1168.7761,-135.86798 C 1159.7309,-163.29668 1153.5168,-192.03023 1139.875,-217.65625 C 1137.2064,-221.40065 1134.2869,-227.8659 1128.9375,-227.71875 z "
         id="path3535" />
      <path
         style="opacity:0.05882401;fill:#000000;fill-opacity:1;stroke:none;stroke-width:2.375;stroke-miterlimit:4;stroke-dasharray:18.99999981, 18.99999981;stroke-dashoffset:0;stroke-opacity:1"
         d="M 1129.125,-230.125 C 1120.1687,-227.66001 1116.6614,-217.40792 1112.625,-210.03125 C 1094.2063,-166.31348 1085.0054,-119.2557 1065.9688,-75.71875 C 1055.3254,-51.841516 1042.2982,-25.988487 1017.875,-13.65625 C 988.72738,0.16466459 955.41197,0.72312205 923.65625,1.4375 C 886.92604,2.3006089 849.97701,-1.7866086 813.40625,2.8125 C 806.85257,4.3363839 797.46863,5.1456497 794.71875,12.3125 C 794.17092,20.982284 802.22372,27.23939 807.5625,33.03125 C 837.80498,59.885529 873.22383,80.411874 904.78792,105.70952 C 927.33954,124.09289 951.11291,143.58369 962.625,171.09375 C 971.96612,197.60719 965.59274,226.41314 959.1511,252.74815 C 948.33775,295.82478 929.45717,336.64345 919.51247,379.79706 C 918.53305,387.7426 915.44141,397.93888 921.28125,404.75 C 928.24078,408.72153 936.56995,403.63699 943.09375,400.75 C 975.4401,382.71222 1003.2817,357.81425 1033.7604,336.97369 C 1059.792,319.30397 1086.9109,300.61867 1118.5208,295.23106 C 1145.9977,291.4695 1171.7815,305.39639 1194.6562,318.875 C 1234.6775,342.93722 1269.115,375.16544 1309,399.5 C 1316.4834,403.17571 1325.406,409.29329 1333.9688,406.3125 C 1340.1434,401.74003 1337.9417,392.19479 1337.4688,385.5 C 1330.7558,349.57741 1315.7942,315.93781 1305.4542,280.87238 C 1296.3919,250.16209 1286.599,218.03183 1290.9375,185.625 C 1295.3198,158.64994 1315.892,138.51467 1335.375,121.09375 C 1370.6812,90.084453 1412.2666,67.004802 1448.0938,36.6875 C 1454.2152,30.472191 1462.7762,24.132124 1463.4062,14.71875 C 1462.0107,7.7396851 1453.0724,6.3999469 1447.3125,4.875 C 1415.7855,-0.250032 1383.4596,2.938021 1351.5938,2.53125 C 1315.8851,2.187628 1278.7631,2.7441373 1245.1875,-10.75 C 1219.8498,-21.091489 1205.5427,-46.336095 1194.8113,-70.069481 C 1174.6909,-114.70957 1165.4995,-163.38297 1147.0625,-208.65625 C 1142.9592,-216.50987 1139.3947,-227.06679 1130.4062,-230.09375 C 1129.9868,-230.10632 1129.5391,-230.224 1129.125,-230.125 z "
         id="path3540" />
      <path
         style="opacity:0.05882401;fill:#000000;fill-opacity:1;stroke:none;stroke-width:2.375;stroke-miterlimit:4;stroke-dasharray:18.99999981, 18.99999981;stroke-dashoffset:0;stroke-opacity:1"
         d="M 1128.75,-232.46875 C 1118.9233,-230.09164 1114.8435,-219.1623 1110.5312,-211.0625 C 1092.4761,-168.46636 1083.3473,-122.54963 1065.213,-79.919072 C 1054.9825,-56.603957 1043.235,-31.526589 1020.6063,-17.806299 C 993.46312,-3.0679852 961.4945,-2.1037483 931.18789,-0.991784 C 892.78741,0.1703869 854.13818,-3.9350847 815.90625,0.0625 C 807.58282,1.6502228 796.17975,2.566044 792.46875,11.46875 C 791.28621,21.7474 800.63482,29.160213 807.125,35.8125 C 840.04184,64.545804 878.70222,86.590465 912.25039,114.75439 C 932.33532,132.01201 953.73379,150.77322 962,176.71875 C 969.09389,203.87262 962.01978,232.22565 955.13971,258.61073 C 944.21647,299.88952 926.0217,339.3042 916.93299,380.82514 C 915.91006,389.18862 913.0586,400.4707 920.21875,406.875 C 928.37251,411.43577 937.97005,405.66407 945.4375,402.15625 C 979.39008,382.83962 1008.8749,356.23545 1041.375,334.59375 C 1065.8951,318.33151 1091.6545,301.25477 1121.4062,297.25 C 1147.5698,294.83763 1171.7119,308.11676 1193.4375,320.90625 C 1233.4818,344.94765 1268.0223,377.32561 1307.9688,401.625 C 1316.1985,405.6679 1326.013,412.23574 1335.375,408.25 C 1343.018,402.29465 1340.3245,390.71658 1339.3125,382.34375 C 1331.1289,343.07109 1314.5141,306.0116 1303.8399,267.37222 C 1296.2558,239.42653 1288.2652,209.88699 1294.2812,180.84375 C 1301.0297,155.01951 1321.7216,136.1206 1341.2029,119.20024 C 1375.9645,89.51243 1416.2979,67.137911 1450.7812,37.40625 C 1457.1372,30.932774 1466.3953,23.657426 1465.625,13.53125 C 1462.6451,4.7037124 1451.597,3.4633519 1443.6562,1.84375 C 1405.1652,-2.7813642 1366.3009,1.3860267 1327.6566,-0.0079581499 C 1297.3453,-1.1805639 1265.3779,-2.3124703 1238.1562,-16.90625 C 1215.961,-30.1008 1204.234,-54.445809 1194.2707,-77.235169 C 1175.6843,-120.55758 1166.7473,-167.46233 1148.5625,-211 C 1144.3054,-218.86304 1139.4038,-232.33326 1128.75,-232.46875 z "
         id="path3545" />
      <path
         style="opacity:0.05882401;fill:#000000;fill-opacity:1;stroke:none;stroke-width:2.375;stroke-miterlimit:4;stroke-dasharray:18.99999981, 18.99999981;stroke-dashoffset:0;stroke-opacity:1"
         d="M 1337.3058,409.76851 C 1309.0361,430.20101 1198.0555,299.39668 1128.2943,299.22423 C 1058.5331,299.05178 946.90705,429.3058 918.73876,408.73375 C 890.57047,388.1617 980.67783,242.19204 959.28446,175.79192 C 937.89109,109.3918 779.51783,43.479824 790.37853,10.333064 C 801.23923,-22.813706 967.90935,17.776414 1024.4487,-23.088666 C 1080.988,-63.953736 1094.734,-234.94358 1129.6146,-234.85735 C 1164.4951,-234.77111 1177.3956,-63.715406 1233.7322,-22.571296 C 1290.0688,18.572814 1456.9376,-21.192716 1467.6342,12.007314 C 1478.3309,45.207344 1319.6337,110.3355 1297.9123,176.62902 C 1276.1908,242.92254 1365.5755,389.33602 1337.3058,409.76851 z "
         id="path3550" />
      <path
         style="opacity:0.05882401;fill:#000000;fill-opacity:1;stroke:none;stroke-width:2.375;stroke-miterlimit:4;stroke-dasharray:18.99999981, 18.99999981;stroke-dashoffset:0;stroke-opacity:1"
         d="M 1128.4688,-237.15625 C 1116.6027,-235.26773 1111.1124,-222.57549 1106.25,-213.03125 C 1084.6222,-162.04754 1075.6216,-106.0584 1049.0938,-57.09375 C 1039.4766,-39.080539 1025.2145,-21.988594 1005.0625,-15.84375 C 970.57754,-4.3246978 932.96088,-5.6263322 896.78151,-5.7271005 C 866.75861,-5.5500967 836.21916,-8.7754912 806.5625,-3 C 797.86862,-1.2781673 786.79946,4.1793637 787.53125,14.5625 C 789.379,27.60704 800.85868,36.262835 809.94744,44.561604 C 852.43017,79.507064 902.38815,105.70759 939.29643,147.14322 C 952.13957,161.40867 961.13844,179.72758 960.25,199.3125 C 959.35702,239.5518 944.50818,277.54033 931.96185,315.30297 C 923.86944,340.51844 913.03393,365.37117 910.90625,391.90625 C 910.14175,400.35864 913.23539,411.41252 922.8125,412.96875 C 936.46531,414.47595 948.28134,405.83535 959.44305,399.40405 C 1005.6397,369.4263 1046.4664,329.74997 1097.5938,308.25 C 1114.4048,301.20679 1133.5946,299.08938 1150.9851,305.58154 C 1188.8046,318.75815 1220.4433,344.68576 1252.5261,368.30889 C 1273.986,383.77228 1294.3465,401.85546 1318.875,412 C 1326.9439,415.60427 1339.1207,415.67876 1343.0938,406.21875 C 1348.2562,392.40935 1342.9766,377.38632 1339.8303,363.72378 C 1325.6248,313.36761 1302.8621,264.95137 1297.3438,212.5625 C 1295.1226,193.16623 1298.4992,172.60913 1310.9723,157.04171 C 1334.3686,126.10681 1367.4582,104.53779 1398.7409,82.126093 C 1420.8176,65.988534 1445.0138,51.736505 1463.25,31.25 C 1469.2219,24.770989 1473.9748,13.519821 1466.8438,6.1875 C 1456.3103,-3.3074495 1440.9213,-3.1519033 1427.5625,-4.46875 C 1374.3573,-6.9657072 1320.1524,0.21997857 1267.7188,-10.90625 C 1249.0799,-14.757073 1230.6561,-23.963639 1219.75,-40.21875 C 1197.6253,-71.320224 1187.3735,-108.82124 1175.875,-144.8125 C 1167.0344,-171.70367 1160.8875,-200.13681 1146.5625,-224.71875 C 1142.5892,-230.9436 1136.615,-237.82763 1128.4688,-237.15625 z "
         id="path3553" />
      <path
         style="opacity:0.05882401;fill:#000000;fill-opacity:1;stroke:none;stroke-width:2.375;stroke-miterlimit:4;stroke-dasharray:18.99999981, 18.99999981;stroke-dashoffset:0;stroke-opacity:1"
         d="M 1128.0938,-239.5 C 1114.809,-237.32856 1108.6557,-223.25097 1103.4375,-212.46875 C 1082.0397,-161.38018 1073.0704,-105.32877 1046.0312,-56.46875 C 1036.8484,-39.610694 1023.1631,-23.82757 1004.2812,-18.03125 C 967.76052,-6.0592286 928.44399,-8.0362277 890.34375,-8.15625 C 861.81034,-8.0813428 832.69311,-11.011981 804.59375,-4.9375 C 794.80294,-2.9552216 783.47755,4.5371915 785.28125,15.90625 C 788.3313,30.733827 801.66522,40.208614 812.36883,49.63186 C 853.60747,82.551578 901.28907,108.501 936.90625,147.9375 C 949.17966,161.55675 958.38196,178.82133 957.89423,197.65607 C 957.56047,235.83739 943.90678,272.043 932.03125,307.90625 C 923.31026,335.08257 911.54108,361.76619 908.625,390.34375 C 907.58011,399.98368 910.63358,412.56834 921.375,415.0625 C 935.47318,417.57455 948.29381,408.62197 959.84652,401.90515 C 1004.9782,372.83214 1044.6813,334.54847 1093.9816,312.32483 C 1111.243,304.38499 1131.0835,300.84192 1149.3438,307.53125 C 1185.4889,319.78894 1215.8698,344.17926 1246.2984,366.57091 C 1269.2405,383.07051 1290.8198,402.39208 1316.8438,413.75 C 1325.6019,417.66758 1338.4501,418.65197 1344.0938,409.25 C 1350.8009,396.9584 1346.4338,382.26658 1343.7812,369.5 C 1329.9755,316.91695 1305.4281,266.86507 1299.6875,212.40625 C 1297.5984,193.86907 1300.5636,174.17084 1312.3125,159.1875 C 1335.1599,128.51635 1367.7153,107.31361 1398.4449,85.177448 C 1421.1654,68.60111 1445.9284,54.074508 1464.8011,33.048209 C 1471.4443,25.873897 1476.5058,13.725339 1469.1875,5.28125 C 1459.4689,-4.7488021 1444.3386,-5.2185725 1431.375,-6.5625 C 1377.4348,-9.7145446 1322.3178,-1.9429046 1269.2407,-12.989684 C 1250.8187,-16.654563 1232.3487,-25.542503 1221.5938,-41.625 C 1199.5078,-72.975565 1189.3359,-110.34447 1177.8338,-146.45665 C 1169.1684,-172.89413 1163.0516,-200.47777 1149.25,-224.84375 C 1144.7855,-232.31547 1137.6579,-240.40929 1128.0938,-239.5 z "
         id="path3558" />
      <path
         style="opacity:0.05882401;fill:#000000;fill-opacity:1;stroke:none;stroke-width:2.375;stroke-miterlimit:4;stroke-dasharray:18.99999981, 18.99999981;stroke-dashoffset:0;stroke-opacity:1"
         d="M 1127.75,-241.8125 C 1113.5889,-239.61732 1106.7443,-224.9749 1101.2812,-213.40625 C 1079.9152,-162.4227 1070.9494,-106.43997 1044,-57.65625 C 1035.0656,-41.266449 1021.9084,-25.868138 1003.4688,-20.25 C 968.3224,-8.6899523 930.53103,-10.383829 893.84428,-10.485713 C 864.07612,-10.359707 833.78327,-13.494201 804.43611,-7.3199644 C 793.78555,-5.2046618 781.76261,2.7008782 782.84375,14.90625 C 784.69608,29.818674 797.56297,39.807911 808.08215,49.138462 C 849.80206,83.193028 898.70216,109.15169 935.15625,149.53125 C 947.25159,162.86864 956.29426,179.94435 955.53125,198.40625 C 955.00196,236.64539 941.02624,273.17487 929.15874,309.04638 C 920.5448,335.82495 908.98868,362.19147 906.28125,390.34375 C 905.06094,401.05744 909.03341,414.72335 920.875,417.34375 C 935.93635,420.1486 949.60854,410.62436 961.94305,403.3728 C 1007.0152,374.17963 1046.3859,336.14836 1095.8125,314.09375 C 1112.6798,306.43308 1131.9322,303.36905 1149.642,310.07952 C 1185.7416,322.74174 1216.042,347.23861 1246.4889,369.65024 C 1269.0393,385.92811 1290.3035,404.78937 1316.0312,415.96875 C 1325.847,420.3724 1339.9317,420.83325 1346.125,410.46875 C 1353.3467,397.29305 1348.8201,381.61432 1345.7785,367.93873 C 1332.0259,315.7797 1307.749,266.14192 1302.0312,212.21875 C 1299.9889,194.38417 1302.7975,175.15111 1314.125,160.6875 C 1335.3061,132.11606 1365.2701,111.913 1393.7352,91.368011 C 1417.943,73.66662 1444.2649,58.233359 1465.0625,36.375 C 1472.6159,28.489144 1479.2271,15.55118 1472.125,5.3125 C 1463.2884,-6.2338457 1447.2711,-7.2539527 1434.0026,-8.7287857 C 1378.3677,-12.530356 1321.6973,-3.7271825 1266.875,-15.9375 C 1249.8876,-19.659122 1233.3832,-28.325176 1223.5312,-43 C 1202.5883,-72.498733 1192.5487,-107.96488 1181.6893,-141.90496 C 1172.4443,-170.0604 1165.9867,-199.60932 1151.5202,-225.64079 C 1146.5523,-234.08903 1138.5236,-242.97802 1127.75,-241.8125 z "
         id="path3563" />
      <path
         style="opacity:0.05882401;fill:#000000;fill-opacity:1;stroke:none;stroke-width:2.375;stroke-miterlimit:4;stroke-dasharray:18.99999981, 18.99999981;stroke-dashoffset:0;stroke-opacity:1"
         d="M 1127.4375,-244.125 C 1112.4081,-241.96759 1104.8943,-226.70719 1099.125,-214.375 C 1077.4853,-162.80801 1068.6546,-106.1769 1040.9688,-57.09375 C 1032.1849,-41.254814 1018.9838,-26.885141 1000.9688,-21.875 C 964.71169,-10.659327 926.04188,-12.775289 888.4066,-12.912408 C 859.749,-12.842139 830.46297,-15.780951 802.35005,-9.1972898 C 790.54636,-6.6745512 778.4328,3.3819049 780.625,16.59375 C 783.90721,33.320608 798.7546,44.094562 810.95025,54.520581 C 851.65713,86.716867 898.24062,112.26091 933.40625,151.09375 C 945.14237,164.01252 953.90743,180.60087 953.1875,198.4375 C 952.60035,236.758 938.48157,273.27819 926.61468,309.21074 C 918.00251,335.87217 906.59172,362.13741 903.9375,390.21875 C 902.58886,401.93667 907.25986,416.45459 919.9375,419.5625 C 936.1155,422.88982 950.85078,412.67529 964.03957,404.84045 C 1008.8328,375.66416 1048.338,337.59486 1097.6736,315.86662 C 1113.6309,308.67345 1132.1987,305.96545 1148.9567,312.32241 C 1184.7765,324.95707 1214.8214,349.25099 1245.0826,371.52524 C 1267.8038,387.95642 1289.2802,406.96967 1315.2188,418.15625 C 1325.8957,422.98205 1340.9942,423.08704 1347.875,412.09375 C 1356.0375,398.08181 1351.1732,381.07858 1347.8069,366.37745 C 1334.0433,314.74747 1310.0876,265.45042 1304.375,212.0625 C 1302.3843,194.51997 1305.0537,176.06744 1316.1562,161.84375 C 1338.8471,131.69541 1370.8626,110.78697 1401.1639,89.021542 C 1424.1858,72.226833 1449.2693,57.462613 1468.3949,36.079459 C 1476.4558,27.398439 1481.5677,12.87521 1473.1562,2.75 C 1462.6425,-9.1838632 1445.4403,-9.9314256 1430.7212,-11.319398 C 1376.9237,-14.440625 1322.3121,-6.5577785 1269.2188,-17.8125 C 1252.1982,-21.300285 1235.3161,-29.569174 1225.375,-44.4375 C 1204.109,-74.583233 1194.1224,-110.76831 1183.0591,-145.46044 C 1174.028,-173.02059 1167.6224,-201.95028 1153.25,-227.34375 C 1147.8938,-236.3995 1138.8684,-245.52546 1127.4375,-244.125 z "
         id="path3568" />
      <path
         style="opacity:0.05882401;fill:#000000;fill-opacity:1;stroke:none;stroke-width:2.375;stroke-miterlimit:4;stroke-dasharray:18.99999981, 18.99999981;stroke-dashoffset:0;stroke-opacity:1"
         d="M 1127.0938,-246.46875 C 1110.8642,-244.13476 1102.6631,-227.82971 1096.5939,-214.39869 C 1075.3956,-163.52354 1066.4027,-107.59978 1039.4378,-59.102564 C 1030.8279,-43.544441 1018.1264,-29.127465 1000.4375,-24.15625 C 965.09297,-13.192294 927.20337,-15.100018 890.4375,-15.21875 C 861.23174,-15.162144 831.43761,-18.120207 802.6875,-11.71875 C 790.00373,-9.1231896 776.80807,1.0664056 778.15625,15.25 C 780.05307,32.20451 794.57089,43.61605 806.62146,54.009137 C 847.83835,87.350844 895.74745,113.00335 931.65625,152.65625 C 943.01444,165.21114 951.55953,181.16969 950.84375,198.46875 C 950.22906,235.57866 936.89171,270.75605 925.34375,305.625 C 916.41512,333.44314 904.38821,360.80576 901.5625,390.125 C 900.23311,402.73957 905.334,418.11125 918.8125,421.65625 C 935.37443,425.70723 950.89085,415.46546 964.44305,407.34155 C 1009.2801,378.38558 1048.537,340.39604 1097.6875,318.40625 C 1113.1603,311.42235 1130.9781,308.19487 1147.3438,314.28125 C 1181.8929,326.1355 1210.9822,349.32855 1240.1588,370.76733 C 1264.1608,388.06364 1286.6527,408.18836 1314,420.21875 C 1325.4981,425.42281 1341.5354,425.54515 1349.3438,414.125 C 1358.6767,399.57402 1353.7119,381.35625 1350.0882,365.7837 C 1336.3891,314.43568 1312.761,265.74171 1306.7828,212.56676 C 1304.7764,195.56529 1307.0405,177.32801 1317.9062,163.46875 C 1340.0854,133.7751 1371.6974,113.11487 1401.3519,91.746173 C 1424.6264,74.789161 1450.0067,59.823242 1469.5312,38.34375 C 1478.3648,29.078317 1484.0957,13.789185 1475.8438,2.375 C 1465.3123,-11.167386 1446.5906,-12.251257 1430.8774,-13.663148 C 1377.2925,-16.749553 1322.776,-9.0012004 1269.9375,-20.03125 C 1253.3062,-23.503865 1236.8594,-31.353565 1227.25,-45.875 C 1206.496,-75.261955 1196.7148,-110.48489 1185.8591,-144.26549 C 1176.6359,-172.53023 1170.071,-202.31067 1155.3125,-228.46875 C 1149.4963,-238.42587 1139.5505,-247.99713 1127.0938,-246.46875 z "
         id="path3573" />
      <path
         style="opacity:0.05882401;fill:#000000;fill-opacity:1;stroke:none;stroke-width:2.375;stroke-miterlimit:4;stroke-dasharray:18.99999981, 18.99999981;stroke-dashoffset:0;stroke-opacity:1"
         d="M 1126.9062,-248.8125 C 1109.7682,-246.52651 1100.7548,-229.58574 1094.4473,-215.33194 C 1073.0883,-164.28962 1064.2497,-108.16747 1036.9688,-59.53125 C 1028.79,-44.935771 1016.7952,-31.285629 1000.1183,-26.545628 C 965.34926,-15.598011 928.13491,-17.462648 891.93821,-17.543803 C 862.09305,-17.451315 831.61066,-20.546461 802.25,-14.03125 C 788.89614,-11.249179 775.16571,-0.78619162 775.75,14.0625 C 776.71521,31.983094 791.75375,44.356587 804.35181,55.183175 C 845.62041,88.822515 893.80309,114.42284 929.90625,154.21875 C 940.89737,166.36204 949.16914,181.73712 948.5,198.53125 C 947.85561,235.21682 934.64531,270.01823 923.27855,304.48567 C 914.23586,332.47686 902.14307,360.14499 899.25,389.6875 C 897.69767,403.44629 903.47441,420.00242 918.09375,423.90625 C 935.9943,428.38055 952.70392,417.18272 967.28125,408.34375 C 1011.0827,379.66543 1049.8032,342.74517 1097.8254,320.88733 C 1113.052,313.96045 1130.534,310.49298 1146.6562,316.53125 C 1181.015,328.3503 1209.8077,351.42483 1238.7654,372.65657 C 1262.5339,389.84058 1285.0056,409.74185 1311.9062,421.875 C 1324.1919,427.6907 1341.3339,428.39373 1350.375,416.625 C 1361.0938,402.2381 1356.4938,383.10884 1352.875,367.125 C 1339.3345,315.24643 1315.1386,265.90549 1309.1108,212.31545 C 1307.1758,195.74543 1309.3649,177.9405 1320.0312,164.53125 C 1342.3886,134.87898 1374.0773,114.3272 1403.8514,92.865292 C 1427.2127,75.873644 1452.647,60.831176 1471.9886,39.110709 C 1481.3378,29.023191 1486.5434,12.430293 1477.4062,0.5625 C 1466.1751,-13.501798 1446.6088,-14.68532 1430.0361,-16.076295 C 1377.5041,-18.94335 1323.9194,-11.610865 1272.2188,-21.96875 C 1255.6138,-25.190786 1238.7779,-32.600657 1229.125,-47.28125 C 1208.4155,-76.693074 1198.6944,-112.07873 1187.7917,-145.94247 C 1178.6082,-174.1541 1172.0366,-203.85032 1157.2188,-229.84375 C 1150.9869,-240.53099 1140.1698,-250.41416 1126.9062,-248.8125 z "
         id="path3578" />
      <path
         style="opacity:0.05882401;fill:#000000;fill-opacity:1;stroke:none;stroke-width:2.375;stroke-miterlimit:4;stroke-dasharray:18.99999981, 18.99999981;stroke-dashoffset:0;stroke-opacity:1"
         d="M 1126.75,-251.15625 C 1109.056,-249.04039 1099.2312,-231.93503 1092.6875,-217.1875 C 1071.2504,-166.49695 1062.4931,-110.85271 1035.8125,-62.28125 C 1027.7454,-47.487787 1015.9107,-33.288611 998.96875,-28.625 C 964.02333,-17.84479 926.74423,-19.822838 890.5,-19.90625 C 860.84708,-19.85331 830.58225,-22.853872 801.40625,-16.25 C 787.0669,-13.207654 772.74622,-1.6694071 773.40625,14.125 C 774.34033,33.116121 790.23011,46.227508 803.62146,57.634137 C 844.49163,90.758297 892.07586,116.23143 927.8125,155.40625 C 938.54574,167.20629 946.90457,182.23054 946.15625,198.5625 C 945.45927,235.07166 932.25451,269.77242 920.90625,304.09375 C 911.84024,332.19695 899.78094,359.8466 896.90625,389.5 C 895.30043,404.04437 901.42008,421.39353 916.625,425.875 C 934.35064,431.1618 951.51527,420.67866 966.09652,411.8739 C 1010.832,383.15696 1049.9742,345.24186 1098.7921,323.03877 C 1113.6941,316.20695 1131.0627,312.85031 1146.7678,319.04568 C 1180.4436,330.89292 1208.8576,353.64365 1237.3591,374.53157 C 1261.7312,392.13256 1284.7035,412.62603 1312.5,424.6875 C 1325.6969,430.54941 1343.5683,430.0445 1352.7188,417.5 C 1363.6407,401.87919 1358.7742,381.67605 1354.6194,364.5962 C 1341.2724,314.53107 1318.4406,266.70449 1311.75,215.125 C 1309.518,198.12594 1310.8682,179.78844 1321.9375,165.875 C 1344.172,136.50939 1375.6183,116.10391 1405.1951,94.802792 C 1428.8818,77.528272 1454.7436,62.349787 1474.2188,40.09375 C 1484.0831,29.256236 1488.9104,11.611724 1479.2812,-0.875 C 1467.6601,-15.538452 1447.4557,-17.04016 1430.2236,-18.420045 C 1377.4538,-21.331113 1323.8352,-13.838616 1271.7426,-24.46693 C 1255.9229,-27.644385 1240.1586,-34.81415 1231,-48.6875 C 1210.8781,-77.271481 1201.2573,-111.77066 1190.628,-144.71783 C 1181.3911,-173.20077 1174.6402,-203.1161 1160.0938,-229.59375 C 1153.4248,-241.65894 1141.5869,-252.87798 1126.75,-251.15625 z "
         id="path3583" />
      <path
         style="opacity:0.05882401;fill:#000000;fill-opacity:1;stroke:none;stroke-width:2.375;stroke-miterlimit:4;stroke-dasharray:18.99999981, 18.99999981;stroke-dashoffset:0;stroke-opacity:1"
         d="M 1126.125,-253.46875 C 1107.1357,-250.95491 1096.7352,-232.54885 1089.875,-216.625 C 1068.7203,-165.81623 1059.9264,-110.30614 1032.9062,-61.90625 C 1025.0034,-47.699641 1013.2389,-34.586258 996.92378,-30.441495 C 960.84816,-19.838397 922.68438,-22.273929 885.53213,-22.34368 C 856.9122,-22.36944 827.50589,-25.095529 799.4375,-18.125 C 783.98114,-14.61368 769.47778,-1.0675522 771.125,15.75 C 773.13328,36.033896 790.4751,49.646252 805.01275,61.801831 C 845.36031,93.843659 891.45057,118.95638 926.40625,157.375 C 936.80085,168.83143 944.8183,183.591 943.78125,199.59375 C 942.84633,235.5159 929.80605,269.57394 918.6875,303.34375 C 909.53244,331.75797 897.25346,359.78786 894.53125,389.78125 C 892.919,405.2635 899.87244,423.37797 915.90625,428.125 C 934.98846,433.83393 953.42623,422.4264 969.03957,412.77795 C 1012.6555,384.45616 1051.188,347.64761 1098.5938,325.6875 C 1113.0526,319.00308 1129.8773,315.07936 1145.3125,321.0625 C 1178.7934,332.58133 1206.8837,355.15074 1235.1456,375.81624 C 1259.9473,393.69445 1283.3033,414.61028 1311.6562,426.875 C 1325.482,432.98009 1344.0561,432.46771 1353.9375,419.6875 C 1366.0704,403.92544 1361.4565,382.70856 1357.1535,364.96998 C 1343.7677,313.94431 1320.2006,265.59167 1313.875,212.84375 C 1311.9827,197.17584 1313.5943,180.02184 1323.875,167.21875 C 1345.0461,139.20714 1374.7696,119.59773 1402.9665,99.230558 C 1427.7897,81.092441 1454.964,65.28569 1475.5824,42.141959 C 1485.9917,30.788287 1491.438,12.59126 1482.0625,-1 C 1470.9617,-16.847442 1450.1077,-19.218063 1432.375,-20.625 C 1378.7338,-24.016855 1324.3223,-15.897602 1271.2962,-26.989894 C 1255.9193,-30.082873 1240.7146,-37.516071 1232.0625,-51.1875 C 1212.1912,-80.377697 1202.6393,-115.00679 1192.0298,-148.27353 C 1182.7822,-176.6 1176.1659,-206.29697 1161.1875,-232.34375 C 1154.0525,-244.7112 1141.2084,-255.44986 1126.125,-253.46875 z "
         id="path3588" />
    </g>
    <path
       style="fill:#000000;fill-opacity:1;stroke:none;stroke-width:2.375;stroke-miterlimit:4;stroke-dasharray:18.99999981, 18.99999981;stroke-dashoffset:0;stroke-opacity:1"
       d="M 588.9963,857.81089 L 379.98477,747.26666 L 170.42925,856.77615 L 210.97495,623.83434 L 42.069012,458.37549 L 276.13916,424.95375 L 381.30507,213.18508 L 485.42268,425.47112 L 719.32472,460.04972 L 549.6028,624.67145 L 588.9963,857.81089 z "
       id="path2160"
       inkscape:export-filename="/Users/mike/Desktop/asf.png"
       inkscape:export-xdpi="16.733803"
       inkscape:export-ydpi="16.733803" />
    <path
       style="fill:url(#linearGradient3143);fill-opacity:1;fill-rule:evenodd;stroke:none;stroke-width:1.59750736px;stroke-linecap:butt;stroke-linejoin:miter;stroke-opacity:1"
       d="M 382.82392,260.96677 C 361.73347,260.96677 255.88941,485.75212 373.45039,483.21882 C 495.69815,480.68553 399.22763,260.96677 382.82392,260.96677 z "
       id="path3135"
       sodipodi:nodetypes="czz"
       inkscape:export-filename="/Users/mike/Desktop/asf.png"
       inkscape:export-xdpi="16.733803"
       inkscape:export-ydpi="16.733803" />
    <path
       style="fill:url(#linearGradient3155);fill-opacity:1;fill-rule:evenodd;stroke:none;stroke-width:1.59750736px;stroke-linecap:butt;stroke-linejoin:miter;stroke-opacity:1"
       d="M 555.55774,819.64589 C 577.51224,813.93108 567.43951,630.45744 446.41745,664.05709 C 320.5166,698.92667 538.482,824.09076 555.55774,819.64589 z "
       id="path3153"
       sodipodi:nodetypes="czz"
       inkscape:export-filename="/Users/mike/Desktop/asf.png"
       inkscape:export-xdpi="16.733803"
       inkscape:export-ydpi="16.733803" />
    <path
       style="fill:url(#linearGradient3165);fill-opacity:1;fill-rule:evenodd;stroke:none;stroke-width:1.59750736px;stroke-linecap:butt;stroke-linejoin:miter;stroke-opacity:1"
       d="M 206.4681,820.45777 C 182.17995,814.74296 193.32336,631.26932 327.20949,664.86897 C 466.493,699.73855 225.35891,824.90264 206.4681,820.45777 z "
       id="path3163"
       sodipodi:nodetypes="czz"
       inkscape:export-filename="/Users/mike/Desktop/asf.png"
       inkscape:export-xdpi="16.733803"
       inkscape:export-ydpi="16.733803" />
    <path
       style="fill:url(#linearGradient3169);fill-opacity:1;fill-rule:evenodd;stroke:none;stroke-width:1.59750736px;stroke-linecap:butt;stroke-linejoin:miter;stroke-opacity:1"
       d="M 561.65243,446.23224 C 454.26134,446.23224 349.98999,506.44906 546.02213,505.64163 C 749.86946,504.8342 671.86265,446.23224 561.65243,446.23224 z "
       id="path3167"
       sodipodi:nodetypes="czz"
       inkscape:export-filename="/Users/mike/Desktop/asf.png"
       inkscape:export-xdpi="16.733803"
       inkscape:export-ydpi="16.733803" />
    <path
       style="fill:url(#linearGradient3173);fill-opacity:1;fill-rule:evenodd;stroke:none;stroke-width:1.59750736px;stroke-linecap:butt;stroke-linejoin:miter;stroke-opacity:1"
       d="M 207.77498,448.10216 C 100.38389,448.10216 -3.8874618,508.31898 192.14468,507.51155 C 395.99201,506.70412 317.9852,448.10216 207.77498,448.10216 z "
       id="path3171"
       sodipodi:nodetypes="czz"
       inkscape:export-filename="/Users/mike/Desktop/asf.png"
       inkscape:export-xdpi="16.733803"
       inkscape:export-ydpi="16.733803" />
    <path
       transform="matrix(0.423266,0,0,0.4384785,360.86595,317.47105)"
       d="M 79.999997,183.79076 L 36.027703,154.71276 L -12.854623,174.45132 L 1.2120097,123.64559 L -32.665951,83.255289 L 20,80.933617 L 47.944596,36.232472 L 66.427311,85.603332 L 117.57598,98.366808 L 76.332976,131.20135 L 79.999997,183.79076 z "
       inkscape:randomized="0"
       inkscape:rounded="0"
       inkscape:flatsided="false"
       sodipodi:arg2="1.6710404"
       sodipodi:arg1="1.0427219"
       sodipodi:r2="39.692696"
       sodipodi:r1="79.385391"
       sodipodi:cy="115.21933"
       sodipodi:cx="40"
       sodipodi:sides="5"
       id="path3177"
       style="opacity:1;fill:#ffff11;fill-opacity:1;stroke:none;stroke-width:2.375;stroke-miterlimit:4;stroke-dasharray:18.99999981, 18.99999981;stroke-dashoffset:0;stroke-opacity:1"
       sodipodi:type="star"
       inkscape:export-filename="/Users/mike/Desktop/asf.png"
       inkscape:export-xdpi="16.733803"
       inkscape:export-ydpi="16.733803" />
    <path
       transform="matrix(0.423266,0,0,0.4384785,485.58177,445.04401)"
       d="M 79.999997,183.79076 L 36.027703,154.71276 L -12.854623,174.45132 L 1.2120097,123.64559 L -32.665951,83.255289 L 20,80.933617 L 47.944596,36.232472 L 66.427311,85.603332 L 117.57598,98.366808 L 76.332976,131.20135 L 79.999997,183.79076 z "
       inkscape:randomized="0"
       inkscape:rounded="0"
       inkscape:flatsided="false"
       sodipodi:arg2="1.6710404"
       sodipodi:arg1="1.0427219"
       sodipodi:r2="39.692696"
       sodipodi:r1="79.385391"
       sodipodi:cy="115.21933"
       sodipodi:cx="40"
       sodipodi:sides="5"
       id="path3179"
       style="opacity:1;fill:#ffff11;fill-opacity:1;stroke:none;stroke-width:2.375;stroke-miterlimit:4;stroke-dasharray:18.99999981, 18.99999981;stroke-dashoffset:0;stroke-opacity:1"
       sodipodi:type="star"
       inkscape:export-filename="/Users/mike/Desktop/asf.png"
       inkscape:export-xdpi="16.733803"
       inkscape:export-ydpi="16.733803" />
    <path
       transform="matrix(0.423266,0,0,0.4384785,321.05715,402.37807)"
       d="M 79.999997,183.79076 L 36.027703,154.71276 L -12.854623,174.45132 L 1.2120097,123.64559 L -32.665951,83.255289 L 20,80.933617 L 47.944596,36.232472 L 66.427311,85.603332 L 117.57598,98.366808 L 76.332976,131.20135 L 79.999997,183.79076 z "
       inkscape:randomized="0"
       inkscape:rounded="0"
       inkscape:flatsided="false"
       sodipodi:arg2="1.6710404"
       sodipodi:arg1="1.0427219"
       sodipodi:r2="39.692696"
       sodipodi:r1="79.385391"
       sodipodi:cy="115.21933"
       sodipodi:cx="40"
       sodipodi:sides="5"
       id="path3181"
       style="opacity:1;fill:#ffff11;fill-opacity:1;stroke:none;stroke-width:2.375;stroke-miterlimit:4;stroke-dasharray:18.99999981, 18.99999981;stroke-dashoffset:0;stroke-opacity:1"
       sodipodi:type="star"
       inkscape:export-filename="/Users/mike/Desktop/asf.png"
       inkscape:export-xdpi="16.733803"
       inkscape:export-ydpi="16.733803" />
    <path
       transform="matrix(0.423266,0,0,0.4384785,183.75502,344.34306)"
       d="M 79.999997,183.79076 L 36.027703,154.71276 L -12.854623,174.45132 L 1.2120097,123.64559 L -32.665951,83.255289 L 20,80.933617 L 47.944596,36.232472 L 66.427311,85.603332 L 117.57598,98.366808 L 76.332976,131.20135 L 79.999997,183.79076 z "
       inkscape:randomized="0"
       inkscape:rounded="0"
       inkscape:flatsided="false"
       sodipodi:arg2="1.6710404"
       sodipodi:arg1="1.0427219"
       sodipodi:r2="39.692696"
       sodipodi:r1="79.385391"
       sodipodi:cy="115.21933"
       sodipodi:cx="40"
       sodipodi:sides="5"
       id="path3183"
       style="opacity:1;fill:#ffb611;fill-opacity:1;stroke:none;stroke-width:2.375;stroke-miterlimit:4;stroke-dasharray:18.99999981, 18.99999981;stroke-dashoffset:0;stroke-opacity:1"
       sodipodi:type="star"
       inkscape:export-filename="/Users/mike/Desktop/asf.png"
       inkscape:export-xdpi="16.733803"
       inkscape:export-ydpi="16.733803" />
    <path
       transform="matrix(0.423266,0,0,0.4384785,274.93641,279.4956)"
       d="M 79.999997,183.79076 L 36.027703,154.71276 L -12.854623,174.45132 L 1.2120097,123.64559 L -32.665951,83.255289 L 20,80.933617 L 47.944596,36.232472 L 66.427311,85.603332 L 117.57598,98.366808 L 76.332976,131.20135 L 79.999997,183.79076 z "
       inkscape:randomized="0"
       inkscape:rounded="0"
       inkscape:flatsided="false"
       sodipodi:arg2="1.6710404"
       sodipodi:arg1="1.0427219"
       sodipodi:r2="39.692696"
       sodipodi:r1="79.385391"
       sodipodi:cy="115.21933"
       sodipodi:cx="40"
       sodipodi:sides="5"
       id="path3185"
       style="opacity:1;fill:#ff8f80;fill-opacity:1;stroke:none;stroke-width:2.375;stroke-miterlimit:4;stroke-dasharray:18.99999981, 18.99999981;stroke-dashoffset:0;stroke-opacity:1"
       sodipodi:type="star"
       inkscape:export-filename="/Users/mike/Desktop/asf.png"
       inkscape:export-xdpi="16.733803"
       inkscape:export-ydpi="16.733803" />
    <path
       transform="matrix(0.423266,0,0,0.4384785,487.29958,342.93687)"
       d="M 79.999997,183.79076 L 36.027703,154.71276 L -12.854623,174.45132 L 1.2120097,123.64559 L -32.665951,83.255289 L 20,80.933617 L 47.944596,36.232472 L 66.427311,85.603332 L 117.57598,98.366808 L 76.332976,131.20135 L 79.999997,183.79076 z "
       inkscape:randomized="0"
       inkscape:rounded="0"
       inkscape:flatsided="false"
       sodipodi:arg2="1.6710404"
       sodipodi:arg1="1.0427219"
       sodipodi:r2="39.692696"
       sodipodi:r1="79.385391"
       sodipodi:cy="115.21933"
       sodipodi:cx="40"
       sodipodi:sides="5"
       id="path3187"
       style="opacity:1;fill:#ff5c5b;fill-opacity:1;stroke:none;stroke-width:2.375;stroke-miterlimit:4;stroke-dasharray:18.99999981, 18.99999981;stroke-dashoffset:0;stroke-opacity:1"
       sodipodi:type="star"
       inkscape:export-filename="/Users/mike/Desktop/asf.png"
       inkscape:export-xdpi="16.733803"
       inkscape:export-ydpi="16.733803" />
    <path
       transform="matrix(0.423266,0,0,0.4384785,411.98649,343.37654)"
       d="M 79.999997,183.79076 L 36.027703,154.71276 L -12.854623,174.45132 L 1.2120097,123.64559 L -32.665951,83.255289 L 20,80.933617 L 47.944596,36.232472 L 66.427311,85.603332 L 117.57598,98.366808 L 76.332976,131.20135 L 79.999997,183.79076 z "
       inkscape:randomized="0"
       inkscape:rounded="0"
       inkscape:flatsided="false"
       sodipodi:arg2="1.6710404"
       sodipodi:arg1="1.0427219"
       sodipodi:r2="39.692696"
       sodipodi:r1="79.385391"
       sodipodi:cy="115.21933"
       sodipodi:cx="40"
       sodipodi:sides="5"
       id="path3189"
       style="opacity:1;fill:#ffff11;fill-opacity:1;stroke:none;stroke-width:2.375;stroke-miterlimit:4;stroke-dasharray:18.99999981, 18.99999981;stroke-dashoffset:0;stroke-opacity:1"
       sodipodi:type="star"
       inkscape:export-filename="/Users/mike/Desktop/asf.png"
       inkscape:export-xdpi="16.733803"
       inkscape:export-ydpi="16.733803" />
    <path
       transform="matrix(0.423266,0,0,0.4384785,389.93661,260.28574)"
       d="M 79.999997,183.79076 L 36.027703,154.71276 L -12.854623,174.45132 L 1.2120097,123.64559 L -32.665951,83.255289 L 20,80.933617 L 47.944596,36.232472 L 66.427311,85.603332 L 117.57598,98.366808 L 76.332976,131.20135 L 79.999997,183.79076 z "
       inkscape:randomized="0"
       inkscape:rounded="0"
       inkscape:flatsided="false"
       sodipodi:arg2="1.6710404"
       sodipodi:arg1="1.0427219"
       sodipodi:r2="39.692696"
       sodipodi:r1="79.385391"
       sodipodi:cy="115.21933"
       sodipodi:cx="40"
       sodipodi:sides="5"
       id="path3191"
       style="opacity:1;fill:#ff8811;fill-opacity:1;stroke:none;stroke-width:2.375;stroke-miterlimit:4;stroke-dasharray:18.99999981, 18.99999981;stroke-dashoffset:0;stroke-opacity:1"
       sodipodi:type="star"
       inkscape:export-filename="/Users/mike/Desktop/asf.png"
       inkscape:export-xdpi="16.733803"
       inkscape:export-ydpi="16.733803" />
    <path
       transform="matrix(0.423266,0,0,0.4384785,547.6636,401.71956)"
       d="M 79.999997,183.79076 L 36.027703,154.71276 L -12.854623,174.45132 L 1.2120097,123.64559 L -32.665951,83.255289 L 20,80.933617 L 47.944596,36.232472 L 66.427311,85.603332 L 117.57598,98.366808 L 76.332976,131.20135 L 79.999997,183.79076 z "
       inkscape:randomized="0"
       inkscape:rounded="0"
       inkscape:flatsided="false"
       sodipodi:arg2="1.6710404"
       sodipodi:arg1="1.0427219"
       sodipodi:r2="39.692696"
       sodipodi:r1="79.385391"
       sodipodi:cy="115.21933"
       sodipodi:cx="40"
       sodipodi:sides="5"
       id="path3193"
       style="opacity:1;fill:#ffff11;fill-opacity:1;stroke:none;stroke-width:2.375;stroke-miterlimit:4;stroke-dasharray:18.99999981, 18.99999981;stroke-dashoffset:0;stroke-opacity:1"
       sodipodi:type="star"
       inkscape:export-filename="/Users/mike/Desktop/asf.png"
       inkscape:export-xdpi="16.733803"
       inkscape:export-ydpi="16.733803" />
    <path
       transform="matrix(0.423266,0,0,0.4384785,482.49098,384.81036)"
       d="M 79.999997,183.79076 L 36.027703,154.71276 L -12.854623,174.45132 L 1.2120097,123.64559 L -32.665951,83.255289 L 20,80.933617 L 47.944596,36.232472 L 66.427311,85.603332 L 117.57598,98.366808 L 76.332976,131.20135 L 79.999997,183.79076 z "
       inkscape:randomized="0"
       inkscape:rounded="0"
       inkscape:flatsided="false"
       sodipodi:arg2="1.6710404"
       sodipodi:arg1="1.0427219"
       sodipodi:r2="39.692696"
       sodipodi:r1="79.385391"
       sodipodi:cy="115.21933"
       sodipodi:cx="40"
       sodipodi:sides="5"
       id="path3195"
       style="opacity:1;fill:#ff8c00;fill-opacity:1;stroke:none;stroke-width:2.375;stroke-miterlimit:4;stroke-dasharray:18.99999981, 18.99999981;stroke-dashoffset:0;stroke-opacity:1"
       sodipodi:type="star"
       inkscape:export-filename="/Users/mike/Desktop/asf.png"
       inkscape:export-xdpi="16.733803"
       inkscape:export-ydpi="16.733803" />
    <path
       sodipodi:type="star"
       style="opacity:1;fill:#ff60a1;fill-opacity:1;stroke:none;stroke-width:2.375;stroke-miterlimit:4;stroke-dasharray:18.99999981, 18.99999981;stroke-dashoffset:0;stroke-opacity:1"
       id="path3175"
       sodipodi:sides="5"
       sodipodi:cx="40"
       sodipodi:cy="115.21933"
       sodipodi:r1="79.385391"
       sodipodi:r2="39.692696"
       sodipodi:arg1="1.0427219"
       sodipodi:arg2="1.6710404"
       inkscape:flatsided="false"
       inkscape:rounded="0"
       inkscape:randomized="0"
       d="M 79.999997,183.79076 L 36.027703,154.71276 L -12.854623,174.45132 L 1.2120097,123.64559 L -32.665951,83.255289 L 20,80.933617 L 47.944596,36.232472 L 66.427311,85.603332 L 117.57598,98.366808 L 76.332976,131.20135 L 79.999997,183.79076 z "
       transform="matrix(0.423266,0,0,0.4384785,231.66795,329.8237)"
       inkscape:export-filename="/Users/mike/Desktop/asf.png"
       inkscape:export-xdpi="16.733803"
       inkscape:export-ydpi="16.733803" />
  </g>
</svg>
